<svg width="40" height="40" viewBox="0 0 40 40" fill="none" xmlns="http://www.w3.org/2000/svg">
<path d="M4 12.7273L20.1839 4L36 12.7273V27.8545L20.1839 36L4 27.8545V12.7273Z" fill="#64FFDA" stroke="#64FFDA" stroke-width="7" stroke-miterlimit="1" stroke-linecap="round" stroke-linejoin="round"/>
<path d="M26.196 16.26C26.196 17.508 25.8233 18.548 25.078 19.38C24.3327 20.212 23.3447 20.8187 22.114 21.2L27.21 29H23.7L19.176 21.616H17.226V29H14.21V11.06H19.202C23.8647 11.06 26.196 12.7933 26.196 16.26ZM23.05 16.26C23.05 15.22 22.7467 14.466 22.14 13.998C21.5507 13.53 20.632 13.296 19.384 13.296H17.226V19.406H19.462C20.6407 19.406 21.5333 19.1547 22.14 18.652C22.7467 18.1493 23.05 17.352 23.05 16.26Z" fill="#020C1B"/>
</svg>
